<svg xmlns="http://www.w3.org/2000/svg" version="1.1" xmlns:xlink="http://www.w3.org/1999/xlink" xmlns:svgjs="http://svgjs.dev/svgjs" width="1500" height="1500" viewBox="0 0 1500 1500"><g transform="matrix(1,0,0,1,-0.323615160350073,-0.3236151603499593)"><svg viewBox="0 0 343 343" data-background-color="#ffffff" preserveAspectRatio="xMidYMid meet" height="1500" width="1500" xmlns="http://www.w3.org/2000/svg" xmlns:xlink="http://www.w3.org/1999/xlink"><g id="tight-bounds" transform="matrix(1,0,0,1,0.0740000000000407,0.07400000000001228)"><svg viewBox="0 0 342.85155851775386 342.85155851775386" height="342.85155851775386" width="342.85155851775386"><g><svg></svg></g><g><svg viewBox="0 0 342.85155851775386 342.85155851775386" height="342.85155851775386" width="342.85155851775386"><g><path d="M0 171.426c0-94.676 76.75-171.426 171.426-171.426 94.676 0 171.426 76.75 171.426 171.426 0 94.676-76.75 171.426-171.426 171.426-94.676 0-171.426-76.75-171.426-171.426zM171.426 337.153c91.529 0 165.727-74.199 165.727-165.727 0-91.529-74.199-165.727-165.727-165.727-91.529 0-165.727 74.199-165.727 165.727 0 91.529 74.199 165.727 165.727 165.727z" data-fill-palette-color="tertiary" fill="#ec4104" stroke="transparent"></path><ellipse rx="164.56874808852186" ry="164.56874808852186" cx="171.42577925887693" cy="171.42577925887693" fill="#ec4104" stroke="transparent" stroke-width="0" fill-opacity="1" data-fill-palette-color="tertiary"></ellipse></g><g transform="matrix(1,0,0,1,64.84655864529837,112.84630566836299)"><svg viewBox="0 0 213.1584412271571 117.15894718102787" height="117.15894718102787" width="213.1584412271571"><g><svg viewBox="0 0 213.1584412271571 117.15894718102787" height="117.15894718102787" width="213.1584412271571"><g><svg viewBox="0 0 213.1584412271571 117.15894718102787" height="117.15894718102787" width="213.1584412271571"><g><svg viewBox="0 0 213.1584412271571 117.15894718102787" height="117.15894718102787" width="213.1584412271571"><g id="textblocktransform"><svg viewBox="0 0 213.1584412271571 117.15894718102787" height="117.15894718102787" width="213.1584412271571" id="textblock"><g><svg viewBox="0 0 213.1584412271571 63.18993783481792" height="63.18993783481792" width="213.1584412271571"><g transform="matrix(1,0,0,1,0,0)"><svg width="213.1584412271571" viewBox="1.9649999999999999 -30.8 108.94583333333333 32.3" height="63.18993783481792" data-palette-color="#ffffff"><path d="M27.6-21.5L27.6-21.5Q27.65-21.1 27.53-20.73 27.4-20.35 27.25-20L27.25-20Q26.95-20 26.75-19.95L26.75-19.95Q26.55-19.85 26.63-19.6 26.7-19.35 26.55-19.15L26.55-19.15Q26.45-18.95 26.35-18.7 26.25-18.45 26.15-18.3L26.15-18.3Q26.1-17.95 26.33-17.75 26.55-17.55 26.55-17.25L26.55-17.25Q26.6-17.05 26.53-16.88 26.45-16.7 26.35-16.5L26.35-16.5Q26.25-16.3 26.13-16.15 26-16 25.9-15.8L25.9-15.8Q25.75-15.55 25.58-15.25 25.4-14.95 25.25-14.7L25.25-14.7Q25.05-14.5 24.78-14.3 24.5-14.1 24.25-13.9L24.25-13.9Q24.15-13.75 24.05-13.58 23.95-13.4 23.85-13.15L23.85-13.15Q23.05-12.5 22.25-11.85 21.45-11.2 20.6-10.65L20.6-10.65Q20-10.45 19.35-10.33 18.7-10.2 18.05-10.1L18.05-10.1Q17.55-10.05 17.05-9.95 16.55-9.85 16-9.7L16-9.7Q15.7-9.65 15.4-9.63 15.1-9.6 14.7-9.6L14.7-9.6Q14.05-9.55 13.43-9.53 12.8-9.5 12.25-9.5L12.25-9.5Q11.65-9.25 11.6-8.9L11.6-8.9Q11.55-8.6 11.45-8.3 11.35-8 11.25-7.7L11.25-7.7Q11.25-7.05 11.18-6.35 11.1-5.65 11.15-5L11.15-5Q11.15-4.75 11.1-4.65L11.1-4.65Q11.1-4.35 11.08-4.03 11.05-3.7 11.05-3.4L11.05-3.4Q11.05-3.1 11.08-2.83 11.1-2.55 11.15-2.3L11.15-2.3Q11.3-1.35 10.9-0.4L10.9-0.4Q10.9-0.15 10.8 0.05L10.8 0.05Q10.65 0.45 10.25 0.35L10.25 0.35Q9.5 0.1 8.78 0.08 8.05 0.05 7.25 0.15L7.25 0.15 6.6 0.15Q5.9 0.5 5.15 0.6 4.4 0.7 3.6 0.75L3.6 0.75Q3.15 0.75 3.05 0.45L3.05 0.45Q3.05 0.45 3.03 0.43 3 0.4 3 0.35L3 0.35Q2.9-0.9 2.75-2.2 2.6-3.5 2.65-4.75L2.65-4.75Q2.65-5 2.63-5.25 2.6-5.5 2.55-5.7L2.55-5.7Q2.45-6.25 2.4-6.83 2.35-7.4 2.3-7.95L2.3-7.95Q2.3-8.15 2.3-8.35 2.3-8.55 2.2-8.75L2.2-8.75Q2-9.15 2.02-9.6 2.05-10.05 2.05-10.4L2.05-10.4Q2.2-10.75 2.25-10.98 2.3-11.2 2.35-11.5L2.35-11.5Q2.2-11.7 2.23-11.88 2.25-12.05 2.15-12.2L2.15-12.2Q2.15-12.3 2.1-12.38 2.05-12.45 2.05-12.5L2.05-12.5Q2-13.75 1.98-15.35 1.95-16.95 1.98-18.35 2-19.75 2.05-20.35L2.05-20.35Q2.15-20.55 2.27-20.7 2.4-20.85 2.45-21L2.45-21Q2.45-21.15 2.35-21.23 2.25-21.3 2.15-21.35L2.15-21.35Q2.25-21.8 2.38-22.25 2.5-22.7 2.6-23.15L2.6-23.15Q2.55-23.4 2.5-23.6 2.45-23.8 2.35-24L2.35-24Q2.5-24.35 2.65-24.8L2.65-24.8Q2.6-25.2 2.58-25.7 2.55-26.2 2.45-26.75L2.45-26.75Q2.55-26.9 2.6-27.18 2.65-27.45 2.75-27.7L2.75-27.7Q2.85-27.95 2.78-28.2 2.7-28.45 2.85-28.65L2.85-28.65Q3.15-28.75 3.35-28.7L3.35-28.7Q3.45-28.65 3.6-28.58 3.75-28.5 3.85-28.45L3.85-28.45 4.2-28.45Q4.8-28.65 5.43-28.83 6.05-29 6.6-29.25L6.6-29.25Q6.95-29.45 7.4-29.35L7.4-29.35Q7.7-29.3 7.98-29.28 8.25-29.25 8.5-29.35L8.5-29.35Q8.85-29.4 9.18-29.43 9.5-29.45 9.85-29.45L9.85-29.45Q10.8-29.45 11.75-29.6 12.7-29.75 13.65-29.95L13.65-29.95Q14.05-30.1 14.5-30.05 14.95-30 15.35-30.05L15.35-30.05Q15.7-29.95 16.05-29.83 16.4-29.7 16.75-29.6L16.75-29.6Q17.1-29.5 17.45-29.43 17.8-29.35 18.25-29.25L18.25-29.25Q19-29.45 19.85-29.43 20.7-29.4 21.5-29.35L21.5-29.35Q21.95-29.3 22.38-29.15 22.8-29 23.15-28.75L23.15-28.75Q23.65-28.55 24.25-28.1L24.25-28.1Q24.5-27.9 24.73-27.68 24.95-27.45 25.15-27.2L25.15-27.2Q25.25-27.15 25.3-27.03 25.35-26.9 25.4-26.8L25.4-26.8Q25.5-26.45 25.75-26.25 26-26.05 26.2-25.8L26.2-25.8Q27.1-24.45 27.1-22.7L27.1-22.7Q27.2-22.4 27.35-22.08 27.5-21.75 27.6-21.5ZM19.55-20.8L19.55-20.8Q19.5-21.1 19.38-21.4 19.25-21.7 19.15-22L19.15-22Q19.1-22.15 19.03-22.25 18.95-22.35 18.9-22.4L18.9-22.4Q18.8-22.65 18.5-22.55L18.5-22.55Q18.4-22.45 18.3-22.4 18.2-22.35 18.1-22.25L18.1-22.25Q17.85-22.2 17.63-22.18 17.4-22.15 17.15-22.1L17.15-22.1 16.55-22.1Q16.4-22.2 16.23-22.33 16.05-22.45 15.8-22.6L15.8-22.6Q15.45-22.65 15.03-22.68 14.6-22.7 14.2-22.65L14.2-22.65Q13.25-22.45 12.7-21.9L12.7-21.9Q12.4-22 12.2-22L12.2-22Q12.05-22.1 11.9-22.05 11.75-22 11.6-22L11.6-22Q11.3-21.85 11.05-21.65 10.8-21.45 10.65-21.1L10.65-21.1Q10.6-20.9 10.53-20.68 10.45-20.45 10.45-20.2L10.45-20.2Q10.4-19.7 10.38-19.18 10.35-18.65 10.3-18.1L10.3-18.1Q10.3-17.8 10.28-17.48 10.25-17.15 10.3-16.85L10.3-16.85Q10.3-16.8 10.35-16.65 10.4-16.5 10.45-16.4L10.45-16.4Q11.15-16.5 11.75-16.53 12.35-16.55 12.9-16.45L12.9-16.45Q13.45-16.3 14.03-16.25 14.6-16.2 15.1-16.05L15.1-16.05Q15.35-16 15.7-16.1L15.7-16.1Q16-16.35 16.28-16.6 16.55-16.85 16.85-17.1L16.85-17.1Q17.1-17.15 17.32-17.18 17.55-17.2 17.75-17.25L17.75-17.25Q18.05-17.5 18.35-17.78 18.65-18.05 18.9-18.3L18.9-18.3Q19-18.65 19.07-18.95 19.15-19.25 19.2-19.6L19.2-19.6Q19.3-19.9 19.43-20.18 19.55-20.45 19.55-20.8ZM55.7-2.15L55.7-2.15Q55.8-1.9 55.55-1.45L55.55-1.45Q55.15-1.4 54.72-1.48 54.3-1.55 53.9-1.65L53.9-1.65Q53.25-1.4 53.02-1.3 52.8-1.2 52.6-1.23 52.4-1.25 51.8-1.25L51.8-1.25Q51.65-1.2 51.52-1.1 51.4-1 51.2-0.9L51.2-0.9Q51.2-0.9 51.17-0.88 51.15-0.85 51.1-0.85L51.1-0.85Q50.6-0.85 50.1-0.83 49.6-0.8 49.15-0.8L49.15-0.8Q48.85-1.1 48.77-1.25 48.7-1.4 48.55-1.95L48.55-1.95Q48.45-2.25 48.1-2.65L48.1-2.65Q47.6-3.2 47.07-4.15 46.55-5.1 46.25-5.75L46.25-5.75 46-6Q45.8-6 45.7-5.9L45.7-5.9Q44.9-5.4 44.2-5.75L44.2-5.75Q43.75-5.85 43.32-5.85 42.9-5.85 42.45-5.85L42.45-5.85Q42.1-5.9 41.75-5.85 41.4-5.8 41-5.8L41-5.8Q40.7-5.8 40.37-5.83 40.05-5.85 39.75-5.85L39.75-5.85Q39.35-5.8 38.92-5.7 38.5-5.6 38.1-5.4L38.1-5.4Q37.75-5.2 37.37-5.15 37-5.1 36.6-5.05L36.6-5.05Q36.05-5.05 35.52-4.93 35-4.8 34.45-4.65L34.45-4.65Q34.3-4.6 34.12-4.53 33.95-4.45 33.85-4.25L33.85-4.25Q33.85-4 33.82-3.73 33.8-3.45 33.8-3.15L33.8-3.15Q33.65-2.7 33.6-2.2L33.6-2.2Q33.4-1.5 32.97-1 32.55-0.5 32.1 0L32.1 0Q31.9 0 31.72-0.03 31.55-0.05 31.35-0.05L31.35-0.05Q31.2-0.05 31.02-0.03 30.85 0 30.65 0.05L30.65 0.05Q30.1 0.1 29.5-0.1L29.5-0.1Q29.45-0.15 29.42-0.13 29.4-0.1 29.3-0.1L29.3-0.1 29.05-0.1 28.95-0.15Q28.9-0.25 28.82-0.23 28.75-0.2 28.5-0.25L28.5-0.25Q28.2-0.35 27.95-0.35L27.95-0.35Q27.75-0.35 27.6-0.35 27.45-0.35 27.2-0.4L27.2-0.4Q27.1-0.45 26.9-0.48 26.7-0.5 26.45-0.6L26.45-0.6Q26.3-0.65 26.22-0.63 26.15-0.6 26-0.65L26-0.65 25.85-0.7 25.75-0.7 25.65-0.75Q25.75-1.45 25.87-2.13 26-2.8 26.35-3.45L26.35-3.45Q26.45-3.65 26.5-3.8 26.55-3.95 26.55-4.15L26.55-4.15 26.7-5Q26.85-5.25 27-5.55 27.15-5.85 27.3-6.05L27.3-6.05Q27.4-6.35 27.32-6.65 27.25-6.95 27.45-7.2L27.45-7.2Q27.6-7.45 27.62-7.7 27.65-7.95 27.85-8.1L27.85-8.1Q28.05-8.5 28.22-8.88 28.4-9.25 28.5-9.65L28.5-9.65Q28.55-9.7 28.55-9.85L28.55-9.85Q28.7-10.9 29.4-11.65L29.4-11.65Q29.35-11.85 29.35-12.03 29.35-12.2 29.35-12.3L29.35-12.3Q29.45-12.6 29.7-12.85 29.95-13.1 30.15-13.3L30.15-13.3Q30.4-13.6 30.6-13.9 30.8-14.2 30.85-14.55L30.85-14.55Q31.05-15.3 31.4-15.95 31.75-16.6 32.25-17.2L32.25-17.2Q32.55-17.6 32.77-18.07 33-18.55 33.25-19.05L33.25-19.05Q33.45-19.45 33.62-19.9 33.8-20.35 33.85-20.8L33.85-20.8Q34.25-21.3 34.4-21.58 34.55-21.85 34.67-22.23 34.8-22.6 35-23.4L35-23.4Q35.1-23.5 35.27-23.58 35.45-23.65 35.5-23.85L35.5-23.85Q35.5-24.05 35.75-24.15L35.75-24.15Q36.15-24.4 36.3-24.85L36.3-24.85Q36.45-25.25 36.72-25.58 37-25.9 37.25-26.2L37.25-26.2Q37.5-26.45 37.55-26.7L37.55-26.7Q37.8-27.4 38.22-27.98 38.65-28.55 38.95-29.15L38.95-29.15Q39.2-29.35 39.4-29.38 39.6-29.4 39.8-29.4L39.8-29.4 39.95-29.4Q40.45-29.2 41-29.1L41-29.1Q41.35-29.05 41.65-29.05 41.95-29.05 42.15-29.05L42.15-29.05Q42.3-29.05 42.45-29.05 42.6-29.05 42.75-29L42.75-29Q43.4-28.8 44.1-28.8 44.8-28.8 45.45-28.75L45.45-28.75Q46.3-28.15 46.9-27.6 47.5-27.05 47.85-25.7L47.85-25.7Q47.9-25.65 48-25.6 48.1-25.55 48.15-25.45L48.15-25.45Q48.25-25.4 48.35-25.35 48.45-25.3 48.55-25.2L48.55-25.2Q48.65-25 48.72-24.78 48.8-24.55 48.9-24.3L48.9-24.3Q49-24.1 49.15-23.88 49.3-23.65 49.5-23.4L49.5-23.4Q49.6-22.9 49.82-22.4 50.05-21.9 50-21.25L50-21.25 50.35-20.75Q50.35-20.5 50.37-20.23 50.4-19.95 50.4-19.65L50.4-19.65Q50.65-19.5 50.67-19.25 50.7-19 50.75-18.7L50.75-18.7Q50.9-18.5 51.05-18.28 51.2-18.05 51.35-17.85L51.35-17.85Q51.45-17.5 51.55-17.18 51.65-16.85 51.7-16.55L51.7-16.55Q51.65-16.35 51.62-16.15 51.6-15.95 51.55-15.75L51.55-15.75Q51.65-15.25 51.92-14.88 52.2-14.5 52.45-14.1L52.45-14.1Q52.7-13.15 52.92-12.18 53.15-11.2 53.25-10.2L53.25-10.2Q53.8-9.5 53.92-8.7 54.05-7.9 54.25-7.05L54.25-7.05Q54.35-6.7 54.35-6.38 54.35-6.05 54.4-5.7L54.4-5.7Q54.5-5.4 54.85-4.93 55.2-4.45 55.4-4.2L55.4-4.2Q55.4-3.7 55.45-3.18 55.5-2.65 55.7-2.15ZM43.65-12.7L43.65-12.7Q43.6-13.05 43.4-13.33 43.2-13.6 43.3-13.95L43.3-13.95Q43.1-14.3 43.1-14.8 43.1-15.3 43.2-15.35L43.2-15.35Q43.15-15.45 43.15-15.65L43.15-15.65Q42.95-15.9 42.77-16.1 42.6-16.3 42.45-16.55L42.45-16.55Q42.45-16.5 42.25-16.7L42.25-16.7Q42-16.75 41.85-17L41.85-17Q41.8-17.15 41.72-17.3 41.65-17.45 41.5-17.5L41.5-17.5Q41.3-17.5 41.2-17.38 41.1-17.25 40.9-17.15L40.9-17.15Q40.7-17.1 40.52-17.05 40.35-17 40.15-16.95L40.15-16.95Q39.8-16.65 39.7-16.15L39.7-16.15 39.7-15.55Q39.5-15.2 39.27-14.95 39.05-14.7 38.95-14.4L38.95-14.4Q38.8-13.7 38.5-13.15L38.5-13.15Q38.5-12.8 38.35-12.53 38.2-12.25 38.1-11.95L38.1-11.95Q38.05-11.9 38.05-11.65L38.05-11.65Q38.05-11.35 38.4-11.35L38.4-11.35Q38.6-11.35 38.8-11.38 39-11.4 39.2-11.4L39.2-11.4Q39.3-11.35 39.45-11.28 39.6-11.2 39.7-11.15L39.7-11.15Q40.45-11.25 41.12-11.45 41.8-11.65 42.45-11.9L42.45-11.9Q42.75-12.15 43.1-12.25 43.45-12.35 43.65-12.7ZM88.4-26.85L88.75-26Q88.45-25.05 88.5-24.2L88.5-24.2Q88.55-23.95 88.5-23.68 88.45-23.4 88.4-23.15L88.4-23.15Q88.34-22.95 88.37-22.65 88.4-22.35 88.3-22.15L88.3-22.15Q88.2-21.8 88.3-21.48 88.4-21.15 88.45-20.85L88.45-20.85Q88.34-20.5 88.25-20.08 88.15-19.65 88.2-19.15L88.2-19.15Q88.2-18.55 88.05-17.95L88.05-17.95Q88-17.6 88.05-17.25L88.05-17.25Q88.25-16.6 88.2-16 88.15-15.4 87.95-14.8L87.95-14.8Q87.75-14.45 87.75-14.1L87.75-14.1Q87.8-13.55 87.59-13.05 87.4-12.55 87.15-12.05L87.15-12.05Q87.09-11.9 86.95-11.8 86.8-11.7 86.7-11.55L86.7-11.55Q86.34-10.4 86.15-9.93 85.95-9.45 85.4-8.45L85.4-8.45Q85.34-8.35 85.2-8.2 85.05-8.05 84.95-7.95L84.95-7.95Q84.9-7.85 84.82-7.8 84.75-7.75 84.75-7.7L84.75-7.7Q84.55-7.05 84.15-6.6 83.75-6.15 83.34-5.75L83.34-5.75Q83.15-5.55 83.02-5.33 82.9-5.1 82.7-4.85L82.7-4.85Q82.2-4.5 81.75-4.15 81.3-3.8 80.8-3.45L80.8-3.45Q80.5-3.25 80.2-3.1L80.2-3.1Q79.84-3 79.5-2.83 79.15-2.65 78.8-2.55L78.8-2.55Q78.45-2.35 78.09-2.23 77.75-2.1 77.4-1.9L77.4-1.9 76.25-1.9Q76-1.8 75.72-1.68 75.45-1.55 75.15-1.6L75.15-1.6Q74.84-1.65 74.57-1.48 74.3-1.3 74-1.25L74-1.25Q73.84-1.3 73.65-1.35 73.45-1.4 73.25-1.4L73.25-1.4Q73.05-1.25 72.87-1.13 72.7-1 72.5-0.85L72.5-0.85Q72.45-0.85 72.37-0.83 72.3-0.8 72.2-0.8L72.2-0.8Q72-0.8 71.77-0.78 71.55-0.75 71.34-0.8L71.34-0.8Q71-1 70.7-0.95 70.4-0.9 70.05-1.05L70.05-1.05Q69.65-1.15 69.65-1.5L69.65-1.5Q69.65-1.95 69.15-2.05L69.15-2.05Q69-2.05 68.87-2.02 68.75-2 68.59-2L68.59-2Q68.4-2.05 68.25-2.2 68.09-2.35 67.9-2.45L67.9-2.45Q67.65-2.65 67.34-2.83 67.05-3 66.7-3.05L66.7-3.05Q66.39-3.1 66.12-3.23 65.84-3.35 65.59-3.4L65.59-3.4Q65.05-3.6 64.8-4.3L64.8-4.3Q64.64-4.95 64.25-5.35L64.25-5.35Q64.09-5.55 64-5.73 63.9-5.9 63.8-6.1L63.8-6.1Q63.7-6.2 63.59-6.4 63.5-6.6 63.4-6.65L63.4-6.65Q62.9-6.95 62.62-7.4 62.34-7.85 62.15-8.35L62.15-8.35Q62.09-8.4 62.07-8.5 62.05-8.6 62-8.65L62-8.65Q61.65-8.85 61.65-9.25 61.65-9.65 61.55-10L61.55-10Q61.45-10.1 61.3-10.25 61.15-10.4 61-10.6L61-10.6Q60.9-11 60.75-11.4 60.59-11.8 60.5-12.25L60.5-12.25Q60.5-13.05 60.47-13.43 60.45-13.8 60.4-14.18 60.34-14.55 60.15-15.25L60.15-15.25Q60.15-15.65 60.32-16.05 60.5-16.45 60.4-17L60.4-17Q60.25-17.25 60.12-17.6 60-17.95 59.8-18.3L59.8-18.3Q59.8-18.4 59.77-18.55 59.75-18.7 59.75-18.8L59.75-18.8Q59.8-19.2 59.8-19.55 59.8-19.9 59.8-20.25L59.8-20.25Q59.8-20.65 59.9-21.08 60-21.5 60.05-21.85L60.05-21.85Q60.15-22.4 60.22-22.93 60.3-23.45 60.4-24L60.4-24Q60.5-24.8 60.75-25.6 61-26.4 61.3-27.2L61.3-27.2Q61.84-27.55 62.32-27.85 62.8-28.15 63.3-28.5L63.3-28.5 65.45-28.5 66-28.3Q66.25-28.25 66.5-28.33 66.75-28.4 67-28.45L67-28.45Q67.25-28.3 67.57-28.13 67.9-27.95 68.25-27.7L68.25-27.7Q68.25-27.6 68.32-27.45 68.4-27.3 68.4-27.2L68.4-27.2Q68.4-26.85 68.37-26.45 68.34-26.05 68.2-25.65L68.2-25.65Q68.09-25.2 68.2-24.7L68.2-24.7Q68.25-24.55 68.25-24.2L68.25-24.2Q68.2-23.8 68.09-23.35 68-22.9 67.84-22.5L67.84-22.5Q67.8-22.3 67.8-22.13 67.8-21.95 67.84-21.8L67.84-21.8Q68-21.4 67.87-21.05 67.75-20.7 67.84-20.35L67.84-20.35Q68.15-19.75 68.05-18.95L68.05-18.95Q68.05-18.55 68.2-18.3L68.2-18.3Q68.45-17.85 68.47-17.43 68.5-17 68.45-16.55L68.45-16.55Q68.34-16.15 68.42-15.75 68.5-15.35 68.65-15L68.65-15Q68.84-14.7 68.95-14.43 69.05-14.15 69.25-13.8L69.25-13.8Q69.5-13.55 69.8-13.25 70.09-12.95 70.3-12.55L70.3-12.55Q70.34-12.3 70.7-11.95L70.7-11.95Q70.7-11.95 70.84-11.85L70.84-11.85Q71.09-11.8 71.37-11.8 71.65-11.8 71.9-11.8L71.9-11.8Q72.15-11.6 72.34-11.45 72.55-11.3 72.75-11.15L72.75-11.15Q73.05-11.3 73.3-11.45 73.55-11.6 73.8-11.8L73.8-11.8 74.5-11.95Q74.55-11.95 74.62-11.98 74.7-12 74.75-11.95L74.75-11.95Q76.15-11.5 76.9-12.9L76.9-12.9Q77-13.2 77.2-13.5 77.4-13.8 77.5-14.15L77.5-14.15Q77.59-14.4 77.75-14.6 77.9-14.8 78.05-15L78.05-15 78.05-15.7Q78.2-15.8 78.37-15.98 78.55-16.15 78.75-16.25L78.75-16.25Q78.84-16.5 78.92-16.75 79-17 79.15-17.25L79.15-17.25Q79.25-17.45 79.32-17.63 79.4-17.8 79.55-18L79.55-18Q79.5-18.25 79.45-18.4 79.4-18.55 79.34-18.75L79.34-18.75Q79.7-19.55 79.75-20.3L79.75-20.3Q79.8-20.55 79.77-20.83 79.75-21.1 79.7-21.4L79.7-21.4Q79.8-21.65 79.87-21.88 79.95-22.1 80-22.3L80-22.3Q80-22.7 79.92-23.08 79.84-23.45 79.95-23.8L79.95-23.8Q80.05-24.15 80-24.3L80-24.3Q79.8-25.1 79.9-25.85 80-26.6 80.2-27.25L80.2-27.25Q80.15-27.5 80.12-27.75 80.09-28 80.09-28.25L80.09-28.25Q80.2-28.35 80.3-28.4 80.4-28.45 80.45-28.6L80.45-28.6Q80.7-28.5 80.87-28.43 81.05-28.35 81.25-28.3L81.25-28.3Q81.95-28.05 82.65-27.9 83.34-27.75 84.09-27.95L84.09-27.95Q84.95-27.9 85.82-27.88 86.7-27.85 87.55-27.6L87.55-27.6Q88.25-27.4 88.4-26.85L88.4-26.85ZM110.89-6.6L110.89-6.6Q110.94-6.25 110.87-5.83 110.79-5.4 110.79-5L110.79-5Q110.79-4.65 110.74-4.25 110.69-3.85 110.59-3.45L110.59-3.45Q110.44-3.1 110.49-2.73 110.54-2.35 110.49-1.95L110.49-1.95Q110.39-1.75 110.27-1.5 110.14-1.25 109.99-1L109.99-1Q109.94-0.8 109.84-0.58 109.74-0.35 109.64-0.1L109.64-0.1Q109.29 0.05 108.97 0.23 108.64 0.4 108.34 0.5L108.34 0.5Q107.69 0.65 106.97 0.55 106.24 0.45 105.54 0.65L105.54 0.65Q105.44 0.7 105.32 0.75 105.19 0.8 104.99 0.9L104.99 0.9Q104.79 0.95 104.52 1 104.24 1.05 103.99 1.1L103.99 1.1Q103.79 1.1 103.62 1.1 103.44 1.1 103.34 1.05L103.34 1.05Q103.04 0.9 102.77 0.9 102.49 0.9 102.24 1L102.24 1Q102.04 1 101.84 0.95 101.64 0.9 101.39 0.85L101.39 0.85Q101.14 1.1 100.74 1.25L100.74 1.25Q100.34 1.4 99.89 1.33 99.44 1.25 99.09 1.5L99.09 1.5Q98.79 1.35 98.57 1.25 98.34 1.15 98.09 1.1L98.09 1.1Q97.74 1.05 97.42 1.15 97.09 1.25 96.69 1.2L96.69 1.2Q96.29 1.1 95.92 1.2 95.54 1.3 95.14 1.3L95.14 1.3Q94.74 1.25 94.39 1.28 94.04 1.3 93.74 1.4L93.74 1.4Q93.69 1.25 93.59 1.18 93.49 1.1 93.49 1.05L93.49 1.05Q93.14-0.5 93.14-2.3L93.14-2.3Q93.24-2.8 93.19-3.28 93.14-3.75 93.14-4.3L93.14-4.3Q92.79-5.3 92.72-6.3 92.64-7.3 92.69-8.35L92.69-8.35Q92.74-9.35 92.79-10.4 92.84-11.45 92.89-12.55L92.89-12.55Q92.89-12.95 92.94-13.4 92.99-13.85 93.09-14.25L93.09-14.25Q93.29-14.75 93.34-15.28 93.39-15.8 93.39-16.35L93.39-16.35Q93.39-16.8 93.39-17.28 93.39-17.75 93.34-18.25L93.34-18.25Q93.34-18.45 93.34-18.7 93.34-18.95 93.29-19.2L93.29-19.2Q93.19-19.6 93.14-20 93.09-20.4 93.09-20.75L93.09-20.75Q93.14-21 93.12-21.25 93.09-21.5 93.04-21.75L93.04-21.75Q92.99-21.95 93.04-22.2 93.09-22.45 93.04-22.65L93.04-22.65Q92.99-23 92.99-23.3 92.99-23.6 93.09-23.9L93.09-23.9Q93.14-24.2 93.04-24.55L93.04-24.55Q92.99-24.95 92.97-25.38 92.94-25.8 93.04-26.15L93.04-26.15Q93.19-26.75 93.24-27.38 93.29-28 93.34-28.5L93.34-28.5Q93.44-28.9 93.67-29.13 93.89-29.35 93.84-29.65L93.84-29.65Q93.79-29.95 94.09-30.08 94.39-30.2 94.14-30.55L94.14-30.55Q94.49-30.55 94.54-30.5L94.54-30.5Q95.49-30.1 96.19-30.4L96.19-30.4Q96.49-30.35 96.79-30.3 97.09-30.25 97.34-30.25L97.34-30.25Q97.59-30.2 97.89-30.25 98.19-30.3 98.44-30.35L98.44-30.35Q99.04-30.5 99.62-30.63 100.19-30.75 100.79-30.75L100.79-30.75Q101.34-30.85 101.79-30.75L101.79-30.75Q101.94-30.75 102.24-30.55L102.24-30.55Q102.19-30.35 102.17-30.15 102.14-29.95 102.09-29.75L102.09-29.75Q102.14-29.5 102.22-29.23 102.29-28.95 102.29-28.65L102.29-28.65Q102.34-28.4 102.47-28.13 102.59-27.85 102.69-27.55L102.69-27.55Q102.54-27.25 102.39-26.88 102.24-26.5 102.09-26.15L102.09-26.15Q102.19-25.95 102.24-25.78 102.29-25.6 102.34-25.4L102.34-25.4Q102.14-24.5 101.97-23.6 101.79-22.7 101.74-21.75L101.74-21.75Q101.69-21.5 101.62-21.23 101.54-20.95 101.44-20.6L101.44-20.6Q101.54-20.4 101.64-20.18 101.74-19.95 101.79-19.7L101.79-19.7 101.59-18.7Q101.59-18.5 101.59-18.28 101.59-18.05 101.49-17.9L101.49-17.9Q101.34-17.55 101.32-17.2 101.29-16.85 101.19-16.45L101.19-16.45Q101.19-15.8 101.14-15.13 101.09-14.45 101.14-13.75L101.14-13.75Q101.14-13.3 101.02-12.93 100.89-12.55 100.79-12.05L100.79-12.05Q100.89-11.85 100.94-11.65 100.99-11.45 101.04-11.2L101.04-11.2Q100.99-10.95 100.92-10.68 100.84-10.4 100.74-10.1L100.74-10.1Q100.89-9.75 101.04-9.4 101.19-9.05 101.34-8.65L101.34-8.65Q101.44-8.45 101.49-8.28 101.54-8.1 101.59-7.9L101.59-7.9Q101.74-7.5 101.92-7.4 102.09-7.3 102.44-7.35L102.44-7.35Q103.14-7.55 103.89-7.65 104.64-7.75 105.39-7.9L105.39-7.9Q105.54-7.95 105.89-7.95L105.89-7.95Q106.34-7.95 106.82-8.05 107.29-8.15 107.69-8.4L107.69-8.4Q108.59-8.95 109.54-8.8L109.54-8.8Q109.79-8.75 110.04-8.8 110.29-8.85 110.54-8.75L110.54-8.75Q110.59-8.7 110.64-8.58 110.69-8.45 110.69-8.35L110.69-8.35Q110.84-7.9 110.87-7.48 110.89-7.05 110.89-6.6Z" opacity="1" transform="matrix(1,0,0,1,0,0)" fill="#ffffff" class="wordmark-text-0" data-fill-palette-color="quaternary" id="text-0"></path></svg></g></svg></g><g transform="matrix(1,0,0,1,0,78.10756559911039)"><svg viewBox="0 0 213.1584412271571 39.051381581917475" height="39.051381581917475" width="213.1584412271571"><g transform="matrix(1,0,0,1,0,0)"><svg width="213.1584412271571" viewBox="5.7 -40.6 230.07000000000002 42.15" height="39.051381581917475" data-palette-color="#ffffff"><path d="M40.45-38.95C42.5-38.95 44.15-37.25 44.15-35.2 44.15-33.1 42.5-31.45 40.45-31.45 38.35-31.45 36.7-33.1 36.7-35.2 36.7-37.25 38.35-38.95 40.45-38.95ZM40.45-29.8C43.4-29.8 45.8-32.2 45.8-35.2 45.8-38.15 43.4-40.6 40.45-40.6 37.45-40.6 35.05-38.15 35.05-35.2 35.05-32.2 37.45-29.8 40.45-29.8ZM14.5-16.55C13.55-13.75 12.25-11.15 8.65-8.4 7.1-7.2 6.1-6.9 6.1-5.65 6.1-4.7 6.7-3.9 7.85-3.9 11.4-3.9 15.25-10.8 15.8-16.25ZM19.7-34.7C22.3-34.35 23.45-34.05 23.65-32.5 23.8-31.35 23.85-28.35 23.9-25.3 20.15-24.85 12-23.8 9.7-23.75 8.6-23.7 7.55-25 6.6-26.3L5.7-25.9C5.8-24.95 6-23.75 6.3-23.15 7.15-21.55 9-20.1 10.1-20.1 11.2-20.1 11.7-21 13.7-21.4 16.3-22 20.7-22.55 23.95-23 23.95-21.35 23.95-19.85 23.95-18.8 23.95-14.55 23.95-6.4 23.8-4.1 23.75-3.4 23.3-3.35 22.75-3.45 21.45-3.75 19.55-4.4 17.9-4.95L17.4-3.9C19-3 20.7-1.8 21.6-0.8 22.7 0.55 22.65 1.55 24.05 1.55 25.75 1.55 26.9-0.65 26.9-2.8 26.9-4.15 26.65-15 26.65-18.75 26.65-20 26.65-21.65 26.7-23.3 30.05-23.65 34.2-24.1 36.2-24.1 38.4-24.1 39.8-23.95 41.3-23.95 42.55-23.95 43.05-24.3 43.05-25.4 43.05-26.55 40.55-27.7 38.7-27.7 37.6-27.7 37.1-26.9 26.75-25.6 26.8-27.8 26.85-29.8 26.95-31 27.05-32.4 28.05-32.5 28.05-33.4 28.05-34.55 25.45-36.2 23.4-36.3 22.35-36.3 20.8-36.05 19.65-35.8ZM32.9-16.25C36.45-13.75 38.65-10.6 39.95-8.25 40.9-6.65 41.5-5 42.9-5 44.1-5 44.7-6.05 44.45-7.45 43.65-11.55 38.65-15.15 33.6-17.15ZM99.04-20.85C99.09-19.85 99.14-19 99.49-18.05 100.19-16.35 102.54-13.9 103.94-13.9 105.39-13.9 105.94-14.65 108.79-14.95 112.54-15.4 126.59-16.15 129.74-16.15 132.79-16.15 134.54-16.05 136.29-16.05 137.99-16.05 138.49-16.6 138.49-17.5 138.49-18.85 136.24-19.7 134.34-19.7 133.04-19.7 131.64-19.4 128.29-19.15 125.99-19.05 108.49-17.9 104.04-17.9 101.94-17.9 101.14-19.45 100.04-21.15ZM208.42-32.45C210.97-32.2 212.32-31.75 212.37-30.5 212.67-25.7 212.37-12.25 212.12-9.4 211.97-7.4 211.42-7.15 211.42-6.2 211.42-5.25 213.42-2.85 214.52-2.85 215.52-2.85 216.17-4.25 217.32-4.95 224.17-8.8 231.47-14.65 235.77-20.8L234.72-21.65C230.07-16.6 223.12-11.25 215.87-8.15 215.37-8 215.07-8.1 215.07-8.8 215.07-12.55 215.47-26.15 215.72-28.45 215.87-30 216.87-30 216.87-31.1 216.87-32.3 213.62-34.1 211.62-34.1 210.47-34.1 209.62-33.95 208.32-33.5ZM202.27-24.65C202.27-18.6 197.22-8.2 189.27-2L190.12-0.95C199.22-6.65 203.87-14.65 205.52-22.3 205.77-23.55 206.72-23.9 206.72-24.95 206.72-26.45 203.17-28.35 201.42-28.5 200.32-28.6 199.27-28.35 198.52-28.15L198.52-27.1C199.72-26.8 202.27-26.2 202.27-24.65Z" opacity="1" transform="matrix(1,0,0,1,0,0)" fill="#ffffff" class="slogan-text-1" data-fill-palette-color="quaternary" id="text-1"></path></svg></g></svg></g></svg></g></svg></g><g></g></svg></g></svg></g></svg></g></svg></g><defs></defs></svg><rect width="342.85155851775386" height="342.85155851775386" fill="none" stroke="none" visibility="hidden"></rect></g></svg></g></svg>