<?xml version="1.0" encoding="UTF-8"?>
<svg version="1.1" xmlns="http://www.w3.org/2000/svg" width="1024" height="1024">
<path d="M0 0 C337.92 0 675.84 0 1024 0 C1024 337.92 1024 675.84 1024 1024 C686.08 1024 348.16 1024 0 1024 C0 686.08 0 348.16 0 0 Z " fill="#5A5A59" transform="translate(0,0)"/>
<path d="M0 0 C145.2 0 290.4 0 440 0 C440 83.16 440 166.32 440 252 C294.8 252 149.6 252 0 252 C0 168.84 0 85.68 0 0 Z " fill="#595959" transform="translate(292,323)"/>
<path d="M0 0 C177.87 0 355.74 0 539 0 C541.97 6.93 544.94 13.86 548 21 C549.9669121 25.53105547 549.9669121 25.53105547 551.94189453 30.05859375 C552.73246772 31.86916136 553.51814133 33.68187219 554.30029297 35.49609375 C556.27618312 40.07813471 558.28374792 44.63406999 560.41015625 49.1484375 C566.03395371 61.3025514 568.23576567 70.9656281 564.5 84.3125 C560.99101477 93.42850009 555.27172282 99.85012693 546.8828125 104.74609375 C539.48988475 107.96171679 532.58102434 109.44645585 524.54145241 109.38031673 C523.64035944 109.38497665 522.73926648 109.38963657 521.81086767 109.3944377 C518.80553387 109.40634403 515.80065581 109.39700907 512.7953186 109.38768005 C510.61321818 109.39185487 508.43111993 109.3973332 506.2490257 109.40399987 C500.26331067 109.41845369 494.27773335 109.41420987 488.29201078 109.40683305 C481.83244248 109.40210357 475.37290407 109.4146093 468.91334534 109.42485046 C456.99363447 109.44164679 445.07396528 109.44348294 433.15424536 109.43854547 C422.14089404 109.43398578 411.12755902 109.43459061 400.11420822 109.44038582 C398.63608042 109.44114269 397.15795262 109.44189867 395.67982482 109.44265376 C393.45233365 109.44379898 391.22484248 109.44494886 388.99735131 109.44611301 C368.29200851 109.45681581 347.58667114 109.46154551 326.88132668 109.45364285 C326.10105638 109.45334567 325.32078608 109.4530485 324.51687123 109.45274232 C318.18079765 109.45029346 311.84472413 109.44768184 305.50865061 109.44505819 C280.79545481 109.4349563 256.08232695 109.44331094 231.36914062 109.46655273 C203.59301497 109.49263294 175.81693022 109.50547124 148.04079187 109.49836498 C145.07833569 109.49764894 142.1158795 109.49697455 139.15342331 109.49632454 C138.42401078 109.49615473 137.69459826 109.49598492 136.94308233 109.49580997 C125.93928979 109.49350837 114.93553527 109.50147729 103.93175125 109.51461601 C91.41549016 109.52953416 78.89932444 109.52998711 66.383065 109.5125451 C59.99780913 109.50402419 53.6127232 109.50191247 47.22747612 109.51719666 C41.37979937 109.53102074 35.53243853 109.52630947 29.68478017 109.50695742 C27.5718253 109.50319016 25.45884526 109.5061402 23.34591277 109.51656907 C7.55573452 109.58894973 -4.99715225 108.53043399 -16.90234375 97.1875 C-21.52536657 92.33967903 -23.91247718 87.31868467 -26 81 C-26.33 80.01 -26.66 79.02 -27 78 C-28.25318345 65.8799258 -24.67450175 55.61756663 -19.01831055 45.02929688 C-17.95854162 42.91738143 -17.08501358 40.79110133 -16.2265625 38.58984375 C-13.73331868 32.28669279 -11.0867758 26.05134788 -8.4375 19.8125 C-7.95603516 18.67619141 -7.47457031 17.53988281 -6.97851562 16.36914062 C-4.66344945 10.90787723 -2.33662241 5.45211895 0 0 Z " fill="#8E8E8E" transform="translate(242,632)"/>
<path d="M0 0 C1.18548728 -0.00352835 1.18548728 -0.00352835 2.39492381 -0.00712797 C5.06545831 -0.01382938 7.73594429 -0.0133594 10.40648651 -0.01294994 C12.33164339 -0.01624787 14.25679957 -0.01997328 16.18195486 -0.02409142 C21.48987764 -0.03412786 26.79778911 -0.03783086 32.10572004 -0.04048073 C37.82372743 -0.04437898 43.54172582 -0.05395772 49.25972748 -0.0626936 C63.07844999 -0.08247273 76.89717325 -0.09252655 90.71590638 -0.10142139 C97.22065164 -0.10580236 103.72539608 -0.1111697 110.23014069 -0.11641026 C131.84941971 -0.13342482 153.46869758 -0.14794397 175.08798218 -0.155159 C176.48643624 -0.15563375 177.8848903 -0.15610964 179.28334436 -0.15658666 C179.97685355 -0.15682303 180.67036275 -0.15705941 181.38488737 -0.15730295 C184.89855681 -0.15850415 188.41222625 -0.1597196 191.92589569 -0.16094494 C192.62319506 -0.16118509 193.32049443 -0.16142524 194.03892409 -0.16167267 C216.64085933 -0.16956345 239.24274205 -0.19298971 261.84465436 -0.22550088 C285.7405285 -0.25981055 309.63636839 -0.27951012 333.53226805 -0.28280324 C346.55808765 -0.28496938 359.58383011 -0.29373324 372.60962677 -0.31926441 C383.70315695 -0.34095772 394.79659125 -0.34902857 405.89014024 -0.33929763 C411.55019355 -0.33474886 417.21004897 -0.3366729 422.87007523 -0.35605907 C428.05429558 -0.37366213 433.23817323 -0.372716 438.42239708 -0.35716178 C440.2953078 -0.35478138 442.16824208 -0.35913165 444.04111677 -0.37099043 C456.74130158 -0.44640827 467.92575649 -0.08193856 477.6339035 9.20843983 C485.36461825 17.8703543 486.64974842 26.1891042 486.6311264 37.5106554 C486.63691208 38.76639866 486.64269775 40.02214191 486.64865875 41.315938 C486.66444808 44.80123425 486.66786526 48.28645003 486.66929772 51.77177772 C486.67307661 55.58805542 486.6884056 59.40428998 486.7022686 63.22054195 C486.72744838 70.62755849 486.7424333 78.03456067 486.75385251 85.44160981 C486.76750197 94.00983345 486.79383804 102.5779872 486.8201828 111.14618397 C486.883469 133.76716871 486.92950376 156.38819905 486.9776535 179.00922108 C487.1632785 254.80609608 487.1632785 254.80609608 487.3526535 332.13422108 C315.4226535 332.13422108 143.4926535 332.13422108 -33.6473465 332.13422108 C-33.7504715 282.22172108 -33.8535965 232.30922108 -33.9598465 180.88422108 C-34.00536652 165.12253162 -34.05088654 149.36084217 -34.09778595 133.12152576 C-34.12036896 113.87884998 -34.12036896 113.87884998 -34.12456512 104.87134266 C-34.12922455 98.57844153 -34.14755134 92.28576279 -34.1752243 85.99292469 C-34.2071124 78.73079519 -34.22151197 71.4688787 -34.21457125 64.2066787 C-34.2115666 60.49381899 -34.21623966 56.78143499 -34.24342215 53.06866312 C-34.27241036 49.08489095 -34.26227474 45.10214509 -34.24861908 41.1182909 C-34.2631824 39.97072945 -34.27774572 38.82316799 -34.29275036 37.64083195 C-34.19040506 26.50418802 -30.64629252 17.20512472 -22.905159 9.11078358 C-15.85460933 2.93850308 -9.30975478 -0.01866993 0 0 Z M6.3526535 43.13422108 C6.3526535 126.29422108 6.3526535 209.45422108 6.3526535 295.13422108 C151.5526535 295.13422108 296.7526535 295.13422108 446.3526535 295.13422108 C446.3526535 211.97422108 446.3526535 128.81422108 446.3526535 43.13422108 C301.1526535 43.13422108 155.9526535 43.13422108 6.3526535 43.13422108 Z " fill="#8E8E8E" transform="translate(285.64734649658203,279.86577892303467)"/>
<path d="M0 0 C1.56037994 -0.00856522 1.56037994 -0.00856522 3.15228271 -0.01730347 C4.8635585 -0.01898026 4.8635585 -0.01898026 6.60940552 -0.02069092 C7.81125488 -0.02565582 9.01310425 -0.03062073 10.25137329 -0.03573608 C13.5489631 -0.04784461 16.8464895 -0.0553027 20.14409399 -0.05974674 C22.20468895 -0.06267903 24.26527835 -0.06678412 26.32587051 -0.07125092 C32.77421508 -0.0849223 39.22254694 -0.09459095 45.67090499 -0.09845281 C53.11249152 -0.10293413 60.55389442 -0.12048681 67.99542511 -0.1494534 C73.74923544 -0.17107248 79.50299412 -0.18115719 85.25684464 -0.18249393 C88.69267279 -0.18354171 92.12832825 -0.18944383 95.56411362 -0.20731354 C99.3969795 -0.22686109 103.22961596 -0.22250433 107.06253052 -0.21600342 C108.76773361 -0.22982559 108.76773361 -0.22982559 110.50738525 -0.243927 C111.5532782 -0.23835785 112.59917114 -0.2327887 113.67675781 -0.22705078 C114.58267103 -0.22851734 115.48858425 -0.2299839 116.42194939 -0.2314949 C119.55727365 0.22700019 121.41158844 1.28779077 123.96536255 3.14044189 C126.42201452 6.82541985 126.66622746 9.86015976 125.96536255 14.14044189 C124.17172344 16.9504765 122.9465532 18.64984657 119.96536255 20.14044189 C118.29168359 20.2439465 116.61393419 20.28427541 114.93708801 20.29434204 C113.87296692 20.3029425 112.80884583 20.31154297 111.71247864 20.32040405 C110.53998062 20.324664 109.3674826 20.32892395 108.15945435 20.33331299 C106.9284903 20.34149048 105.69752625 20.34966797 104.42926025 20.35809326 C100.34103727 20.38297969 96.25285131 20.39962077 92.1645813 20.41387939 C90.7574494 20.41923902 89.35031757 20.42461653 87.94318581 20.43001175 C82.09010932 20.45164046 76.23703559 20.47037735 70.38392925 20.48163414 C61.99444901 20.49787483 53.60543181 20.53105484 45.21612614 20.58803499 C39.31796723 20.62673006 33.41993218 20.64626626 27.52164966 20.6515547 C23.99847754 20.65520882 20.47579927 20.66723502 16.95276451 20.69965744 C13.02152274 20.73531793 9.09086249 20.73136825 5.15945435 20.72393799 C3.40981636 20.74854599 3.40981636 20.74854599 1.62483215 20.77365112 C-7.15838767 20.70553218 -7.15838767 20.70553218 -10.25746155 17.74655151 C-12.61350782 14.2915672 -12.69406175 12.35087062 -12.46432495 8.29669189 C-11.82251636 5.0759797 -10.42812168 3.32877033 -8.03463745 1.14044189 C-5.06031009 0.14899944 -3.10427219 0.0102017 0 0 Z " fill="#585858" transform="translate(454.0346374511719,682.8595581054688)"/>
</svg>
